<svg width="36" height="40" viewBox="0 0 36 40" fill="none" xmlns="http://www.w3.org/2000/svg">
<path fill-rule="evenodd" clip-rule="evenodd" d="M19.7414 12.1079C14.6665 11.8021 8.70064 12.572 8.25346 16.7084C7.92064 19.7865 12.1815 23.0716 20.575 22.6611C13.2483 22.5646 10.0187 19.4193 10.3206 16.6261C10.6965 13.1497 15.2365 12.1253 19.7414 12.1079Z" fill="#0B2959"/>
<path fill-rule="evenodd" clip-rule="evenodd" d="M13.2052 21.1491L12.1265 26.5425H15.4587L16.2776 22.2842C15.0681 22.005 14.0459 21.6148 13.2052 21.1491ZM20.7468 22.7561L20.0186 26.5425H23.3509L24.1459 22.5672C22.9297 22.6997 21.7972 22.7594 20.7468 22.7561ZM24.3408 21.5932C20.5261 21.4428 15.6938 20.8898 13.6061 19.1447L14.4941 14.7043H17.8263L16.9495 19.1765H21.5093L22.3863 14.7043H25.7185L24.3408 21.5932Z" fill="#0B2959"/>
<path d="M10.5657 16.556C11.3794 12.4318 17.4067 12.2598 20.1206 12.1698C20.3603 12.1478 20.5355 12.1429 20.6255 12.1513C20.4743 12.1579 20.3051 12.1637 20.1206 12.1698C18.3148 12.3352 12.8519 13.4687 12.637 17.1696C11.8478 22.1683 27.2267 21.9355 27.2267 21.9355C15.3589 24.2336 10.2077 19.9315 10.5657 16.556Z" fill="#CFF0FF"/>
<path d="M16.5159 0.163676C15.8111 0.39511 15.4324 0.605503 10.8353 3.26699C9.94112 3.78245 7.93188 4.93962 6.38547 5.82327C2.28278 8.19023 2.1355 8.28487 1.53588 8.88452C1.23081 9.17905 0.841576 9.70505 0.662741 10.0417C0.0841577 11.1252 0 11.6617 0 14.481V17.0268L0.967812 16.9952L1.94615 16.9636L1.95666 14.3758C1.96718 11.8405 1.97771 11.7669 2.24069 11.1988C2.38797 10.8832 2.68252 10.4414 2.91396 10.21C3.13487 9.98905 4.33412 9.22111 5.62804 8.48476C9.20477 6.4334 12.7919 4.36104 13.7808 3.77193C14.2752 3.4879 14.959 3.09867 15.3062 2.90931C15.6533 2.73049 16.0531 2.48853 16.2004 2.39385C16.9157 1.88891 18.3884 1.74163 19.209 2.0993C19.6613 2.29917 23.0381 4.22428 23.0381 4.2874C23.0381 4.31896 22.6068 5.07637 22.0914 5.97052C21.5654 6.8647 21.1551 7.63264 21.1762 7.68529C21.1972 7.7694 21.7652 8.09552 26.8673 11.02L30.0758 12.8609L30.0864 14.9859V17.1214H31.0857H32.0851L32.0641 14.4705L32.0325 11.809L31.1909 11.3251C30.7281 11.0516 28.9712 10.0417 27.2881 9.06334C25.6049 8.08499 24.1112 7.21187 23.9744 7.11717L23.7325 6.94887L24.7108 5.27625C25.626 3.70881 25.6786 3.60362 25.4892 3.46686C25.1631 3.22491 21.1341 0.921097 20.2609 0.468747C19.4509 0.0479594 19.3878 0.0374398 18.2622 0.00588064C17.347 -0.0151588 16.9683 0.0164003 16.5159 0.163676Z" fill="#0B2959"/>
<path d="M15.3062 5.25518C12.3501 6.98044 7.61624 9.72602 6.61688 10.2836C5.28089 11.0305 4.64971 11.7037 4.2184 12.8399C4.01852 13.408 3.99749 13.6394 3.99749 16.1746V18.9097H1.99874H0V23.4017C0 28.2723 0.0210394 28.4511 0.589106 29.6188C1.17821 30.818 1.95666 31.4282 5.41765 33.3954C5.82791 33.6268 6.79571 34.1844 7.57418 34.6367C10.0042 36.0463 10.9826 36.6039 11.3087 36.7933C11.6032 36.9616 13.3074 37.9399 13.6756 38.1608C14.9169 38.8867 15.2536 39.076 15.7164 39.2969C16.558 39.7072 17.1366 39.844 17.9992 39.844C19.1143 39.844 19.8928 39.581 21.5023 38.6342C22.2492 38.2028 22.8698 37.8452 22.8909 37.8452C22.9119 37.8452 23.2696 37.6348 23.6904 37.3823C24.1112 37.1298 25.363 36.404 26.4571 35.7728C34.4941 31.1547 34.4415 31.1863 35.1989 30.008C35.8827 28.9245 35.9142 28.7246 35.9564 25.5056L35.9879 22.5916H35.0411H34.0838V25.1058C34.0838 27.2834 34.0523 27.7042 33.8839 28.2618C33.5052 29.461 33.3475 29.5978 29.6235 31.7438C28.7082 32.2698 27.1934 33.1429 26.2572 33.6794C25.3314 34.2159 24.3531 34.7734 24.0901 34.9207C23.8271 35.0786 23.0276 35.5414 22.3018 35.9622C19.0091 37.8768 18.6409 38.0346 17.6626 37.9188C17.1471 37.8557 16.6211 37.6453 15.8322 37.193C14.2752 36.2988 12.5816 35.3205 10.6249 34.1844C9.38359 33.469 7.24806 32.2382 5.89106 31.4597C3.26111 29.9344 2.66148 29.482 2.26174 28.6405C2.00926 28.1145 2.00926 28.0829 1.97771 24.5062L1.94615 20.9085H3.91333H5.88051L5.91206 17.2476C5.94365 13.7025 5.95418 13.5868 6.17506 13.1555C6.49065 12.5769 6.66947 12.4507 9.57294 10.778C10.9299 9.99955 12.4764 9.11591 12.9918 8.81085C13.5178 8.50579 14.8538 7.73785 15.9794 7.09614C17.9992 5.9495 18.0202 5.93897 18.2938 6.10726C18.9249 6.51755 19.4719 6.73844 19.5561 6.64379C19.5982 6.5912 19.8191 6.23349 20.0295 5.8548L20.4082 5.14998L19.9138 4.83439C18.946 4.23477 18.0834 3.76138 17.9571 3.7719C17.8835 3.7719 16.6948 4.44516 15.3062 5.25518Z" fill="#0B2959"/>
<path d="M26.8569 5.28678C26.6044 5.71809 26.4045 6.10731 26.4045 6.14937C26.415 6.19149 27.0146 6.57019 27.751 6.98043C30.686 8.63207 33.2002 10.1048 33.4422 10.3257C33.5789 10.4414 33.7788 10.736 33.884 10.9674C34.0629 11.3461 34.0839 11.7143 34.0839 15.1437V18.9098H32.0852H30.0969L30.0654 22.6338L30.0338 26.3577L29.7182 26.8101C29.371 27.3045 29.2027 27.4097 24.8792 29.9029C23.4906 30.7024 21.5865 31.7964 20.6502 32.3329C18.8619 33.3638 18.3149 33.5637 17.61 33.4375C17.0946 33.3428 17.084 33.3323 14.5173 31.849C13.3916 31.1968 11.5402 30.1343 10.4146 29.4821C9.28898 28.8298 8.02663 28.104 7.60581 27.8621C6.10151 26.9784 5.8911 26.5365 5.8911 24.2012V22.6969H4.94433H3.99756V24.5168C3.99756 26.0211 4.02912 26.4208 4.19743 26.8627C4.41835 27.4938 4.88121 28.1777 5.38616 28.6615C5.72279 28.9877 14.1912 33.9424 16.0005 34.8682C17.5469 35.6571 18.904 35.6045 20.4819 34.6683C22.0809 33.7215 25.9837 31.4598 28.3506 30.1132C30.5808 28.8404 31.0963 28.3985 31.5697 27.3781C32.001 26.463 32.0852 25.8107 32.0852 23.1702V20.856L34.0313 20.8875L35.9775 20.9191V15.9432C35.9775 10.9674 35.9775 10.9674 35.725 10.3678C35.4199 9.63143 34.936 9.01078 34.3574 8.61101C34.126 8.45319 32.6216 7.56954 31.0332 6.65437C29.4447 5.73913 27.9615 4.87651 27.751 4.73976C27.5301 4.61352 27.3407 4.4978 27.3303 4.4978C27.3092 4.4978 27.0988 4.85547 26.8569 5.28678Z" fill="#0B2959"/>
</svg>
